<svg width="32" height="32" viewBox="0 0 32 32" fill="none" xmlns="http://www.w3.org/2000/svg">
<path d="M11.002 15.897C12.08 13.263 14.476 11.308 17.37 10.855C17.5 10.267 17.573 9.658 17.573 9.03C17.573 5.762 15.712 2.934 12.995 1.533C13.593 4.507 12.742 7.713 10.437 10.019C7.99503 12.461 4.54203 13.265 1.42603 12.449C2.11103 13.991 3.25003 15.28 4.66503 16.17C5.63303 15.515 6.80003 15.132 8.05703 15.132C9.12703 15.131 10.13 15.411 11.002 15.897Z" stroke="white" stroke-width="1.5" stroke-miterlimit="10" stroke-linecap="round"/>
<path d="M26.746 17.281C25.944 13.551 22.63 10.753 18.66 10.753C18.221 10.753 17.791 10.788 17.371 10.854C14.476 11.308 12.081 13.262 11.003 15.896C10.131 15.41 9.128 15.13 8.059 15.13C6.802 15.13 5.635 15.513 4.667 16.168C3.057 17.259 2 19.1 2 21.189C2 24.535 4.712 27.247 8.058 27.247L26.026 27.237C28.776 27.217 31 24.983 31 22.229C31 19.719 29.153 17.647 26.746 17.281Z" stroke="white" stroke-width="1.5" stroke-miterlimit="10" stroke-linecap="round"/>
</svg>
